<?xml version="1.0" encoding="utf-8"?>
<!-- Generator: Adobe Adobe Illustrator 24.2.0, SVG Export Plug-In . SVG Version: 6.00 Build 0)  -->
<svg version="1.1" id="Calque_3" xmlns="http://www.w3.org/2000/svg" xmlns:xlink="http://www.w3.org/1999/xlink" x="0px" y="0px"
	 viewBox="0 0 900 900" style="enable-background:new 0 0 900 900;" xml:space="preserve">
<style type="text/css">
	.st0{fill:url("#img1");stroke:#000000;stroke-miterlimit:10;}
</style>
<defs>
	<pattern id="img1" patternUnits="userSpaceOnUse" x="0" y="0" width="900" height="900">
				<image class="imageSvg" xlink:href="" width="900" height="900"/>             
	</pattern>
</defs>
<path class="st0" d="M412.39,446.66c6.7,37.48,2.55,76.83-13.6,112.94c9.84,49.18,16.74,101.91-1.65,147.81
	c14.54,5.04,29.24,9.61,44.08,13.68c5.06,1.39,10.14,2.72,15.3,3.65c5.51,0.99,11.1,1.51,16.68,1.92
	c38.53,2.81,77.45,0.22,115.49-7.51c2.16-0.16,3.67-2.43,3.77-4.6c0.1-2.16-0.82-4.23-1.69-6.21c-5.67-12.96-9.75-26.6-11.87-39.28
	c-6.38-36.16-0.29-73.21,6.68-109.47c-14.49-35.79-20.99-74.79-17.73-112.64c-3.64-2.65-7.6-4.85-11.87-6.63
	c-5.71,17.22-11.83,34.3-17.81,52.13c-5.16,7.83-12.3,14.78-21.25,17.58c-4.91,1.53-10.11,1.74-15.25,1.95
	c-8.12,0.32-16.31,0.63-24.34-0.67c-8.03-1.3-15.98-4.36-21.86-9.97c-4.95-4.73-8.17-10.97-10.91-17.24
	c-6.57-15-11.01-30.93-13.24-47.32C424.58,439.14,418.18,442.4,412.39,446.66z"/>
</svg>
