<?xml version="1.0" encoding="utf-8"?>
<!-- Generator: Adobe Adobe Illustrator 24.2.0, SVG Export Plug-In . SVG Version: 6.00 Build 0)  -->
<svg version="1.1" id="Calque_3" xmlns="http://www.w3.org/2000/svg" xmlns:xlink="http://www.w3.org/1999/xlink" x="0px" y="0px"
	 viewBox="0 0 900 900" style="enable-background:new 0 0 900 900;" xml:space="preserve">
<style type="text/css">
	.st0{fill:url("#img1");stroke:#000000;stroke-miterlimit:10;}
</style>
<defs>
	<pattern id="img1" patternUnits="userSpaceOnUse" x="0" y="0" width="900" height="900">
				<image class="imageSvg" xlink:href="" width="900" height="900"/>             
	</pattern>
</defs>
<path class="st0" d="M595.29,450.86c8.29,1.56,14.94,7.65,20.54,13.96c31.29,35.34,44.5,85.18,81.2,115.36
	c7.34,6.71,18.29,6.81,28.07,8.59c17.22,3.15,33.43,12.59,51.35,11.61c3.97,1.74,5.72,6.35,6.8,10.55c2.09,8.13,3.2,16.5,2.29,25.23
	c-23.01,1.86-46.09,2.82-69.17,2.86c-10.09,0.02-20.28-0.15-30.09-2.52c-9.81-2.38-19.32-7.16-26.81-16.33
	c-27.15-22.68-50.53-49.87-68.39-79.6C592.05,510.81,593.02,481.03,595.29,450.86z"/>
<path class="st0" d="M590.96,539.61c-17.64,54.35-19.38,113.76-5.67,170.99c-59.77,17.71-125.17,15.85-184.38-5.53
	c-0.27-4.5,1.68-8.79,3.3-12.99c3.04-7.85,5.08-16.09,6.07-24.45c0.79-6.69,0.91-13.44,0.85-20.18
	c-0.31-36.4-5.74-72.76-16.7-109.08c-4.98-29.15-9.95-58.31-14.63-88.84c19.78-3.25,39.17-8.89,57.98-17.48
	c11.88,7.25,26.24,8.98,40.13,9.96c27.53,1.95,55.22,1.62,83.15-1.32c4.71,5.26,12.33,6.53,19.32,7.49
	c4.62,0.63,9.23,1.26,13.95,2.77c-1.07,30.18-1.99,58.31-3.05,88.48C591.57,539.97,590.06,539.12,590.96,539.61z"/>
<path class="st0" d="M374.38,647.36c-5.39-19.87-10.53-39.82-15.41-59.82c-1.62-6.62-3.21-13.27-3.91-20.04
	c-0.92-8.99-0.25-18.06-0.16-27.1c0.18-16.51-1.55-33.13,0.91-49.46c2.46-16.32,9.94-32.92,24.23-40.68
	c3.73,23.51,7.45,47.03,11.18,70.54c0.95,5.97,1.9,11.95,3.32,17.83c1.36,5.62,3.16,11.13,4.65,16.72c2.63,9.84,4.32,19.9,5.9,29.96
	c5.72,36.34,10.06,74.13-0.94,109.98c-3.59,2.15-8.14,2.21-12.13,0.97s-7.51-3.66-10.77-6.27c-18.91-15.14-30.81-37.16-41.73-58.79
	c-10.92-21.62-21.75-43.98-39.55-60.13c2.21-6.54,4.44-13.1,7.63-19.22c3.19-6.12,7.4-11.83,13.54-15.59
	c11.62,12.39,23.24,24.78,34.87,37.17"/>
<path class="st0" d="M586.4,449.84c-7.42,1.15-13.84,5.69-19.66,10.44c-12.71,10.37-24.01,22.37-36.45,33.07
	c-6.7,5.76-13.85,11.21-22.07,14.45c-8.22,3.24-17.7,4.07-25.83,0.61c-3.75-1.6-7.11-4.06-10.66-6.45
	c-14.74-9.98-28.3-21.72-40.29-34.88c-4.11-4.51-8.14-9.28-13.4-12.38c-5.04-2.97-11.2-4.42-14.83-9.22
	c-2.79-2.42-2.89-6.98-0.98-10.15c1.9-3.16,5.33-5.12,8.81-6.34c3.49-1.22,7.16-1.84,10.63-3.1c5.39-1.96,10.16-5.46,14.83-10.53
	c13.53-6.97,28.9-9.76,44.12-10.16c15.21-0.4,30.39,1.5,45.48,3.47c8.1,1.05,16.48,2.22,23.41,6.54
	c7.92,4.93,13.32,13.58,21.91,17.22c2.85,1.2,5.94,1.8,8.67,3.25C585.24,438.39,588.56,444.24,586.4,449.84z"/>
</svg>
