<?xml version="1.0" encoding="utf-8"?>
<!-- Generator: Adobe Adobe Illustrator 24.2.0, SVG Export Plug-In . SVG Version: 6.00 Build 0)  -->
<svg version="1.1" id="Calque_3" xmlns="http://www.w3.org/2000/svg" xmlns:xlink="http://www.w3.org/1999/xlink" x="0px" y="0px"
	 viewBox="0 0 900 900" style="enable-background:new 0 0 900 900;" xml:space="preserve">
<style type="text/css">
	.st0{fill:url("#img1");stroke:#000000;stroke-miterlimit:10;}
</style>
<defs>
	<pattern id="img1" patternUnits="userSpaceOnUse" x="0" y="0" width="900" height="900">
				<image class="imageSvg" xlink:href="" width="900" height="900"/>             
	</pattern>
</defs>
<path class="st0" d="M590.96,539.61c-17.64,54.35-19.38,113.76-5.67,170.99c-59.77,17.71-125.17,15.85-184.38-5.53
	c-0.27-4.5,1.68-8.79,3.3-12.99c3.04-7.85,5.08-16.09,6.07-24.45c0.79-6.69,0.91-13.44,0.85-20.18
	c-0.31-36.4-5.74-72.76-16.7-109.08c-4.98-29.15-9.95-58.31-14.63-88.84c19.78-3.25,39.17-8.89,57.98-17.48
	c11.88,7.25,26.24,8.98,40.13,9.96c27.53,1.95,55.22,1.62,83.15-1.32c4.71,5.26,12.33,6.53,19.32,7.49
	c4.62,0.63,9.23,1.26,13.95,2.77c-1.07,30.18-1.99,58.31-3.05,88.48C591.57,539.97,590.06,539.12,590.96,539.61z"/>
<path class="st0" d="M594.81,450.39c13.94,5.43,22.59,19.88,25.79,34.49s1.99,29.77,2.08,44.72c0.07,11.61,0.95,23.23,0.37,34.83
	c-0.79,15.69-4.24,31.11-7.67,46.45c-1.73,7.74-3.47,15.49-5.88,23.05c-2.54,7.98-5.82,15.71-9.58,23.19
	c-3.53,7.02-7.54,13.92-13.09,19.48c-2.09,2.09-4.38,3.98-6.84,5.76c-8.51-47.79-4.55-97.75,12.02-144.24
	C592.05,508.68,592.72,479.25,594.81,450.39z"/>
<path class="st0" d="M380.24,448.87c-10.69,7.17-17.32,19.24-20.49,31.71c-3.16,12.48-3.22,25.51-3.23,38.38
	c-0.02,31.88,0.24,64.22,8.85,94.92c2.38,8.5,5.39,16.81,8.4,25.12c4.91,13.57,10.01,27.47,19.36,38.47
	c2.1,2.47,4.56,4.87,7.69,5.73s7.04-0.37,7.93-3.24c3.23-12.54,3.18-25.67,2.63-38.6c-1.43-33.64-6.08-67.24-15.42-99.28
	c-1.12-2.25-1.56-4.77-1.98-7.25c-3.06-17.78-6.12-35.57-9.11-53.2C383.2,471,381.52,460.38,380.24,448.87z"/>
<path class="st0" d="M586.4,449.84c-7.42,1.15-13.84,5.69-19.66,10.44c-12.71,10.37-24.01,22.37-36.45,33.07
	c-6.7,5.76-13.85,11.21-22.07,14.45c-8.22,3.24-17.7,4.07-25.83,0.61c-3.75-1.6-7.11-4.06-10.66-6.45
	c-14.74-9.98-28.3-21.72-40.29-34.88c-4.11-4.51-8.14-9.28-13.4-12.38c-5.04-2.97-11.2-4.42-14.83-9.22
	c-2.79-2.42-2.89-6.98-0.98-10.15c1.9-3.16,5.33-5.12,8.81-6.34c3.49-1.22,7.16-1.84,10.63-3.1c5.39-1.96,10.16-5.46,14.83-10.53
	c13.53-6.97,28.9-9.76,44.12-10.16c15.21-0.4,30.39,1.5,45.48,3.47c8.1,1.05,16.48,2.22,23.41,6.54
	c7.92,4.93,13.32,13.58,21.91,17.22c2.85,1.2,5.94,1.8,8.67,3.25C585.24,438.39,588.56,444.24,586.4,449.84z"/>
</svg>
