<?xml version="1.0" encoding="utf-8"?>
<!-- Generator: Adobe Adobe Illustrator 24.2.0, SVG Export Plug-In . SVG Version: 6.00 Build 0)  -->
<svg version="1.1" id="Calque_3" xmlns="http://www.w3.org/2000/svg" xmlns:xlink="http://www.w3.org/1999/xlink" x="0px" y="0px"
	 viewBox="0 0 900 900" style="enable-background:new 0 0 900 900;" xml:space="preserve">
<style type="text/css">
	.st0{fill:url("#img1");stroke:#000000;stroke-miterlimit:10;}
</style>
<defs>
	<pattern id="img1" patternUnits="userSpaceOnUse" x="0" y="0" width="900" height="900">
				<image class="imageSvg" xlink:href="" width="900" height="900"/>             
	</pattern>
</defs>
<path class="st0" d="M392.42,520.21c2.24,11.74,4.49,23.49,6.73,35.23c7.77,40.67,15.57,82.16,10.45,123.32
	c10.15,8.64,23.07,13.54,36.17,16c13.1,2.46,26.52,2.63,39.85,2.8c9.67,0.12,19.34,0.24,28.99-0.34
	c22.28-1.33,44.25-6.37,65.77-14.23c-9.23-40.82-2.1-83.35,5.05-124.58c1.64-9.48,3.37-19.19,8.18-27.52
	c-2.93,2.68-2.72,7.4-1.42,11.16c1.29,3.76,3.44,7.32,3.84,12.16c18.1-10.28,36.53-21.17,50.42-37.8
	c-10.63-13.01-14.74-30.26-24.62-43.85c-7.74-10.64-18.8-18.62-30.91-23.77s-25.24-7.59-37.48-9.36
	c-38.24,7.16-78.15,5.24-115.77-6.62c-14,8.57-29.54,14.62-45.65,17.78c-5.46,1.07-11.05,1.83-16.18,3.99
	c-5.13,2.15-9.88,5.98-11.91,10.97c-8.03,14.55-9.47,31.72-10.15,48.33c-0.41,10.14-0.6,20.28-0.57,30.88
	c1.42,2.51,4.6,3.28,7.42,3.81c13.01,2.43,26.11,4.68,38.71,8.72"/>
</svg>
