<?xml version="1.0" encoding="utf-8"?>
<!-- Generator: Adobe Adobe Illustrator 24.2.0, SVG Export Plug-In . SVG Version: 6.00 Build 0)  -->
<svg version="1.1" id="Calque_3" xmlns="http://www.w3.org/2000/svg" xmlns:xlink="http://www.w3.org/1999/xlink" x="0px" y="0px"
	 viewBox="0 0 900 900" style="enable-background:new 0 0 900 900;" xml:space="preserve">
<style type="text/css">
	.st0{fill:url("#img1");stroke:#000000;stroke-miterlimit:10;}
</style>
<defs>
	<pattern id="img1" patternUnits="userSpaceOnUse" x="0" y="0" width="900" height="900">
				<image class="imageSvg" xlink:href="" width="900" height="900"/>             
	</pattern>
</defs>
<path class="st0" d="M586.78,523.1c3.48,18.49-1.21,37.4-4.76,55.89c-8.21,42.83-10.14,88.11,4.31,130.59
	c-6.01,3.52-13.05,4.77-19.94,5.83c-48.03,7.39-97.54,8.38-144.89-2.52c-5.71-1.31-11.38-2.8-17.62-5.6
	c-2.01,0.02-3.49-2.13-3.53-4.14c-0.05-2.01,0.91-3.89,1.77-5.71c10.14-21.47,9.58-46.32,7.54-69.98c-2.2-25.41-5.87-50.7-11-75.69
	c-1.61-7.86-3.41-15.8-7.22-22.87c3.08,2.68,3.33,7.43,2.27,11.37c-1.06,3.94-3.16,7.55-4.86,11.07
	c-17.63-10.17-35.6-20.61-49.02-35.81c6.26-12.39,11.61-25.27,18.83-37.12c7.23-11.85,16.6-22.82,28.87-29.3
	c15.66-8.27,34.63-8.56,51.81-16.94c6.59,4.5,14.66,6.17,22.54,7.44c32.15,5.2,65.1,5.43,97.86-0.13
	c10.93,7.99,26.18,6.77,39.34,12.81c10.93,5.9,18.26,17.09,21.99,28.94s4.27,24.44,4.51,36.86c0.24,12.42,0.23,24.96,3.05,37.69
	c0.08,3.32-2.28,6.31-5.16,7.95s-6.24,2.19-9.52,2.72c-10.36,1.66-20.73,3.32-31.09,4.98"/>
</svg>
