<?xml version="1.0" encoding="utf-8"?>
<!-- Generator: Adobe Adobe Illustrator 24.2.0, SVG Export Plug-In . SVG Version: 6.00 Build 0)  -->
<svg version="1.1" id="Calque_3" xmlns="http://www.w3.org/2000/svg" xmlns:xlink="http://www.w3.org/1999/xlink" x="0px" y="0px"
	 viewBox="0 0 900 900" style="enable-background:new 0 0 900 900;" xml:space="preserve">
<style type="text/css">
	.st0{fill:url("#img1");stroke:#000000;stroke-miterlimit:10;}
</style>
<defs>
	<pattern id="img1" patternUnits="userSpaceOnUse" x="0" y="0" width="900" height="900">
				<image class="imageSvg" xlink:href="" width="900" height="900"/>             
	</pattern>
</defs>
<path class="st0" d="M593.65,530.3c-5.62,10.22-7.68,21.96-9.65,33.45c-6.87,39.9-13.68,81.33-3.31,119.87
	c-31.67,11.31-65.46,16.66-99.07,15.71c-25.8-0.73-52.59-5.62-73.04-21.06c1.75-6.7,1.79-13.71,1.69-20.63
	c-0.5-34.69-4.15-69.33-10.88-103.36c-1.72-8.69-3.68-17.47-7.76-25.33c3.4,7.01,0.47,15.29-2.17,21.72
	c-17.83-9.78-36.01-19.83-49.92-34.78c4.87-9.64,9.74-19.28,14.62-28.92c2.83-5.6,5.68-11.24,9.45-16.26
	c3.51-4.68,7.76-8.75,12.28-12.45c4.23-3.46,8.72-6.61,13.62-9.03c9.3-4.59,19.68-6.35,29.66-9.17c6.65-1.88,13.16-4.24,19.42-7.33
	c4.97,4.03,11.57,5.31,17.89,6.29c31.48,4.85,63.65,5.16,95.81,1.46c16.78,0.68,33.58,4.78,48.1,13.22
	c14.52,8.44,26.63,21.4,32.74,37.04c3.64,9.3,5.59,20.08,13.15,26.43c-5.96,4.32-11.09,9.68-16.66,14.5
	c-10.41,9-22.44,16.13-35.96,20.94c-1.36-4.65-2.66-9.32-3.91-14.01"/>
</svg>
