<svg width="197" height="293" viewBox="0 0 197 293" fill="none" xmlns="http://www.w3.org/2000/svg">
<path d="M16.3901 10.88C23.0901 48.36 18.9401 87.71 2.79013 123.82C12.6301 173 19.5301 225.73 1.14014 271.63C15.6801 276.67 30.3801 281.24 45.2201 285.31C50.2801 286.7 55.3601 288.03 60.5201 288.96C66.0301 289.95 71.6201 290.47 77.2001 290.88C115.73 293.69 154.65 291.1 192.69 283.37C194.85 283.21 196.36 280.94 196.46 278.77C196.56 276.61 195.64 274.54 194.77 272.56C189.1 259.6 185.02 245.96 182.9 233.28C176.52 197.12 182.61 160.07 189.58 123.81C175.09 88.02 168.59 49.02 171.85 11.17C168.21 8.52001 164.25 6.32001 159.98 4.54001C154.27 21.76 148.15 38.84 142.17 56.67C137.01 64.5 129.87 71.45 120.92 74.25C116.01 75.78 110.81 75.99 105.67 76.2C97.5501 76.52 89.3601 76.83 81.3301 75.53C73.3001 74.23 65.3501 71.17 59.4701 65.56C54.5201 60.83 51.3001 54.59 48.5601 48.32C41.9901 33.32 37.5501 17.39 35.3201 1C28.5801 3.36 22.1801 6.62 16.3901 10.88Z" fill="#F4F4F4" stroke="black" stroke-miterlimit="10"/>
</svg>
