<?xml version="1.0" encoding="utf-8"?>
<!-- Generator: Adobe Adobe Illustrator 24.2.0, SVG Export Plug-In . SVG Version: 6.00 Build 0)  -->
<svg version="1.1" id="Calque_3" xmlns="http://www.w3.org/2000/svg" xmlns:xlink="http://www.w3.org/1999/xlink" x="0px" y="0px"
	 viewBox="0 0 900 900" style="enable-background:new 0 0 900 900;" xml:space="preserve">
<style type="text/css">
	.st0{fill:url("#img1");stroke:#000000;stroke-miterlimit:10;}
</style>
<defs>
	<pattern id="img1" patternUnits="userSpaceOnUse" x="0" y="0" width="900" height="900">
				<image class="imageSvg" xlink:href="" width="900" height="900"/>             
	</pattern>
</defs>
<path class="st0" d="M414.5,445.29c5.13,37.44,0.5,76.17-13.59,112.68c3.88,27.66,7.1,55.4,10.98,82.47
	c23.93,8.3,49.89,8.11,75.2,7.12c29.46-1.16,58.88-3.28,88.42-7.11c-0.71-22.68,1.15-45.45,5.53-67.72
	c0.96-4.91,2.06-9.89,1.54-14.86c-0.43-4.13-1.95-8.06-3.36-11.97c-11.57-32.07-16.43-66.53-13.26-100.44
	c-3.55-2.22-7.33-4.06-10.9-4.91c-3.86,16.86-9.7,33.27-17.36,48.79c-2.13,4.31-4.47,8.65-8.07,11.83
	c-2.95,2.61-6.6,4.29-10.29,5.66c-24.63,9.11-55.15,3.68-71.38-16.65c-8.29-16.77-13.41-35.1-15.44-53.3
	C425.97,438.92,419.7,441.88,414.5,445.29z"/>
</svg>
