<?xml version="1.0" encoding="utf-8"?>
<!-- Generator: Adobe Adobe Illustrator 24.2.0, SVG Export Plug-In . SVG Version: 6.00 Build 0)  -->
<svg version="1.1" id="Calque_3" xmlns="http://www.w3.org/2000/svg" xmlns:xlink="http://www.w3.org/1999/xlink" x="0px" y="0px"
	 viewBox="0 0 900 900" style="enable-background:new 0 0 900 900;" xml:space="preserve">
<style type="text/css">
	.st0{fill:url("#img1");stroke:#000000;stroke-miterlimit:10;}
</style>
<defs>
	<pattern id="img1" patternUnits="userSpaceOnUse" x="0" y="0" width="900" height="900">
				<image class="imageSvg" xlink:href="" width="900" height="900"/>             
	</pattern>
</defs>
<path class="st0" d="M587.64,522.83c1.56,19.97-3.49,39.76-6.79,59.51c-5.52,33.01-6.2,66.82-1.96,100.63
	c-41.72,15.72-87.65,20.09-131.59,12.53c-14.31-2.46-29.42-6.79-38.93-19.15c2.78-10.16,2.37-20.9,1.71-31.41
	c-1.84-29.53-5.41-58.95-11.65-87.34c-13.78-7.66-30.85-6.51-45.3-14.03c0.02-17.38,0.87-34.77,2.96-52.02
	c0.9-7.42,2.05-14.9,4.99-21.77c2.94-6.87,7.87-13.14,14.64-16.31c5.48-2.57,11.7-2.93,17.69-3.8c15.5-2.24,30.46-8.17,45.09-17.14
	c6.65,5.31,15.55,6.6,24.01,7.52c24.05,2.61,48.26,3.7,72.44,3.25c8.89-0.17,17.9-0.56,26.24-3.79c5.14,4.49,12.01,6.39,18.69,7.73
	c6.69,1.35,13.58,2.32,20.68,6c13.09,7.41,19.88,22.63,22.38,37.47c2.5,14.84,1.57,30.06,3.65,44.96c0.96,6.85,2.55,13.78,1.4,20.6
	c-0.46,2.71-1.46,5.52-3.66,7.18c-2.23,1.68-5.21,1.84-7.99,2.01c-11.24,0.65-22.42,2.31-33.37,4.94"/>
<path class="st1" d="M393.25,518.5c-2.05,13.19,5.7,26.13,5.21,39.47"/>
</svg>
