<svg width="184" height="213" viewBox="0 0 184 213" fill="none" xmlns="http://www.w3.org/2000/svg">
<path d="M14.5002 9.41C19.6302 46.85 15.0002 85.58 0.910156 122.09C4.79016 149.75 8.01017 177.49 11.8902 204.56C35.8202 212.86 61.7801 212.67 87.0901 211.68C116.55 210.52 145.97 208.4 175.51 204.57C174.8 181.89 176.66 159.12 181.04 136.85C182 131.94 183.1 126.96 182.58 121.99C182.15 117.86 180.63 113.93 179.22 110.02C167.65 77.95 162.79 43.49 165.96 9.57999C162.41 7.35999 158.63 5.51998 155.06 4.66998C151.2 21.53 145.36 37.94 137.7 53.46C135.57 57.77 133.23 62.11 129.63 65.29C126.68 67.9 123.03 69.58 119.34 70.95C94.7102 80.06 64.1901 74.63 47.9601 54.3C39.6701 37.53 34.5501 19.2 32.5201 1C25.9701 3.04 19.7002 6 14.5002 9.41Z" fill="#F4F4F4" stroke="black" stroke-miterlimit="10"/>
</svg>
