<svg width="268" height="319" viewBox="0 0 268 319" fill="none" xmlns="http://www.w3.org/2000/svg">
<path d="M234.96 135.463C217.32 189.813 215.58 249.223 229.29 306.453C169.52 324.163 104.12 322.303 44.9098 300.923C44.6398 296.423 46.5898 292.133 48.2098 287.933C51.2498 280.083 53.2898 271.843 54.2798 263.483C55.0698 256.793 55.1898 250.043 55.1298 243.303C54.8198 206.903 49.3898 170.543 38.4298 134.223C33.4498 105.073 28.4798 75.9133 23.7998 45.3833C43.5798 42.1333 62.9698 36.4933 81.7798 27.9033C93.6598 35.1533 108.02 36.8833 121.91 37.8633C149.44 39.8133 177.13 39.4833 205.06 36.5433C209.77 41.8033 217.39 43.0733 224.38 44.0333C229 44.6633 233.61 45.2933 238.33 46.8033C237.26 76.9833 236.34 105.113 235.28 135.283C235.57 135.823 234.06 134.973 234.96 135.463Z" fill="#F4F4F4" stroke="black" stroke-miterlimit="10"/>
<path d="M238.81 46.2437C252.75 51.6737 261.4 66.1236 264.6 80.7336C267.8 95.3436 266.59 110.504 266.68 125.454C266.75 137.064 267.63 148.684 267.05 160.284C266.26 175.974 262.81 191.394 259.38 206.734C257.65 214.474 255.91 222.224 253.5 229.784C250.96 237.764 247.68 245.494 243.92 252.974C240.39 259.994 236.38 266.894 230.83 272.454C228.74 274.544 226.45 276.434 223.99 278.214C215.48 230.424 219.44 180.464 236.01 133.974C236.05 104.534 236.72 75.1037 238.81 46.2437Z" fill="#F4F4F4" stroke="black" stroke-miterlimit="10"/>
<path d="M24.2399 44.7236C13.5499 51.8936 6.9199 63.9636 3.7499 76.4336C0.589904 88.9136 0.529893 101.944 0.519893 114.814C0.499893 146.694 0.7599 179.034 9.3699 209.734C11.7499 218.234 14.7599 226.544 17.7699 234.854C22.6799 248.424 27.7799 262.324 37.1299 273.324C39.2299 275.794 41.6899 278.194 44.8199 279.054C47.9499 279.914 51.8599 278.684 52.7499 275.814C55.9799 263.274 55.9299 250.144 55.3799 237.214C53.9499 203.574 49.2999 169.974 39.9599 137.934C38.8399 135.684 38.3999 133.164 37.9799 130.684C34.9199 112.904 31.8599 95.1136 28.8699 77.4836C27.1999 66.8536 25.5199 56.2336 24.2399 44.7236Z" fill="#F4F4F4" stroke="black" stroke-miterlimit="10"/>
<path d="M230.4 45.6937C222.98 46.8437 216.56 51.3837 210.74 56.1337C198.03 66.5037 186.73 78.5037 174.29 89.2037C167.59 94.9637 160.44 100.414 152.22 103.654C144 106.894 134.52 107.724 126.39 104.264C122.64 102.664 119.28 100.204 115.73 97.8137C100.99 87.8337 87.43 76.0937 75.44 62.9337C71.33 58.4237 67.3 53.6537 62.04 50.5537C57 47.5837 50.84 46.1337 47.21 41.3337C44.42 38.9137 44.32 34.3537 46.23 31.1837C48.13 28.0237 51.56 26.0637 55.04 24.8437C58.53 23.6237 62.2 23.0037 65.67 21.7437C71.06 19.7837 75.83 16.2837 80.5 11.2137C94.03 4.24371 109.4 1.45374 124.62 1.05374C139.83 0.653742 155.01 2.55374 170.1 4.52374C178.2 5.57374 186.58 6.74372 193.51 11.0637C201.43 15.9937 206.83 24.6437 215.42 28.2837C218.27 29.4837 221.36 30.0837 224.09 31.5337C229.24 34.2437 232.56 40.0937 230.4 45.6937Z" fill="#F4F4F4" stroke="black" stroke-miterlimit="10"/>
</svg>
