<svg width="277" height="269" viewBox="0 0 277 269" fill="none" xmlns="http://www.w3.org/2000/svg">
<path d="M235.64 91.3C237.2 111.27 232.15 131.06 228.85 150.81C223.33 183.82 222.65 217.63 226.89 251.44C185.17 267.16 139.24 271.53 95.2999 263.97C80.9899 261.51 65.8799 257.18 56.3699 244.82C59.1499 234.66 58.7399 223.92 58.0799 213.41C56.2399 183.88 52.6699 154.46 46.4299 126.07C32.6499 118.41 15.5799 119.56 1.12988 112.04C1.14988 94.66 1.99987 77.27 4.08987 60.02C4.98987 52.6 6.13986 45.12 9.07986 38.25C12.0199 31.38 16.9499 25.11 23.7199 21.94C29.1999 19.37 35.4199 19.01 41.4099 18.14C56.9099 15.9 71.8699 9.97 86.4999 1C93.1499 6.31 102.05 7.59999 110.51 8.51999C134.56 11.13 158.77 12.22 182.95 11.77C191.84 11.6 200.85 11.21 209.19 7.98001C214.33 12.47 221.2 14.37 227.88 15.71C234.57 17.06 241.46 18.03 248.56 21.71C261.65 29.12 268.44 44.34 270.94 59.18C273.44 74.02 272.51 89.24 274.59 104.14C275.55 110.99 277.14 117.92 275.99 124.74C275.53 127.45 274.53 130.26 272.33 131.92C270.1 133.6 267.12 133.76 264.34 133.93C253.1 134.58 241.92 136.24 230.97 138.87" fill="#F4F4F4"/>
<path d="M235.64 91.3C237.2 111.27 232.15 131.06 228.85 150.81C223.33 183.82 222.65 217.63 226.89 251.44C185.17 267.16 139.24 271.53 95.2999 263.97C80.9899 261.51 65.8799 257.18 56.3699 244.82C59.1499 234.66 58.7399 223.92 58.0799 213.41C56.2399 183.88 52.6699 154.46 46.4299 126.07C32.6499 118.41 15.5799 119.56 1.12988 112.04C1.14988 94.66 1.99987 77.27 4.08987 60.02C4.98987 52.6 6.13986 45.12 9.07986 38.25C12.0199 31.38 16.9499 25.11 23.7199 21.94C29.1999 19.37 35.4199 19.01 41.4099 18.14C56.9099 15.9 71.8699 9.97 86.4999 1C93.1499 6.31 102.05 7.59999 110.51 8.51999C134.56 11.13 158.77 12.22 182.95 11.77C191.84 11.6 200.85 11.21 209.19 7.98001C214.33 12.47 221.2 14.37 227.88 15.71C234.57 17.06 241.46 18.03 248.56 21.71C261.65 29.12 268.44 44.34 270.94 59.18C273.44 74.02 272.51 89.24 274.59 104.14C275.55 110.99 277.14 117.92 275.99 124.74C275.53 127.45 274.53 130.26 272.33 131.92C270.1 133.6 267.12 133.76 264.34 133.93C253.1 134.58 241.92 136.24 230.97 138.87" stroke="black" stroke-miterlimit="10"/>
<path d="M41.2498 86.9702C39.1998 100.16 46.9498 113.1 46.4598 126.44" stroke="black" stroke-miterlimit="10"/>
</svg>
