<?xml version="1.0" encoding="utf-8"?>
<!-- Generator: Adobe Adobe Illustrator 24.2.0, SVG Export Plug-In . SVG Version: 6.00 Build 0)  -->
<svg version="1.1" id="Calque_3" xmlns="http://www.w3.org/2000/svg" xmlns:xlink="http://www.w3.org/1999/xlink" x="0px" y="0px"
	 viewBox="0 0 900 900" style="enable-background:new 0 0 900 900;" xml:space="preserve">
<style type="text/css">
	.st0{fill:url("#img1");stroke:#000000;stroke-miterlimit:10;}
</style>
<defs>
	<pattern id="img1" patternUnits="userSpaceOnUse" x="0" y="0" width="900" height="900">
				<image class="imageSvg" xlink:href="" width="900" height="900"/>             
	</pattern>
</defs>
<path class="st0" d="M635.74,429.91c0.51,16.04,0.51,32.08,0.52,48.13c0.01,34.11,0.02,68.22,0.03,102.33
	c0,18.38,0.01,36.79-1.83,55.08c-1.64,16.28-4.73,32.39-6.71,48.63c-5.65,46.25-2.2,93.59,9.91,138.31
	c-4.13,5.96-11.19,9.12-18.08,11.38c-34.17,11.23-71.25,7.1-107.05,10.56c-16.87,1.63-33.86,4.96-50.65,2.57
	c-12.72-1.81-24.72-6.84-36.56-11.83c-24.95-10.5-49.9-21.01-75.6-32.04c6.41-44,11.21-88.43,9.55-132.86
	c-0.59-15.9-2.01-31.75-3.27-47.61c-4.86-61.4-7.3-122.96-9.22-184.92c23.83-16.91,56.22-15.5,82.46-28.36
	c5.19,4.24,12.2,5.36,18.86,6.08c21.7,2.34,43.67,2.14,65.32-0.61c13.28-1.68,27.37-4.82,37-14.93
	C579.05,408.35,607.32,418.11,635.74,429.91z"/>
<path class="st0" d="M435.92,386.36c16.78,6.15,35.06,6.79,52.91,6c5.86-0.26,11.73-0.67,17.52-1.65c3.99-0.67,7.94-1.62,11.88-2.56
	c7.75-1.85,15.5-3.71,23.05-5.88c2.3,6.17,5.89,11.76,9.85,17.5c-2.26,2.29-4.98,4.05-7.78,5.63c-5.8,3.26-12,5.79-18.2,7.37
	c-24.01,3.81-48.45,4.89-72.47,2.93c-8.26-0.8-16.38-3.02-23.8-6.31c1.3-2.74,2.17-5.66,3.02-8.56
	C433.32,396.02,434.74,391.21,435.92,386.36z"/>
<path class="st0" d="M710.75,692.05c-10.6-20.7-9.71-45.11-9.96-68.36c-0.53-49.35-7.29-98.62-20.07-146.28
	c-2.93-10.94-6.41-22.2-14.04-30.56c-7.97-8.72-19.45-13.2-31.52-16.66c0.46,28.72,0.92,57.43,1.37,86.15
	c0.12,7.54,0.24,15.08,0.29,22.61c0.31,51.09-2.83,102.2-9.27,152.84c8.07,15.48,10.98,33.05,13.96,51.58
	C667.79,731.4,691.6,714.02,710.75,692.05z"/>
<path class="st0" d="M712.33,689.69c3.27,4.16,5.19,9.26,6.25,14.45c1.06,5.19,1.32,10.5,1.57,15.79
	c-6.31,6.86-12.61,13.93-19.59,20.3c-15.84,14.46-35.07,25.17-55.32,31.34c-0.67-2.16-1.34-4.31-2-6.47
	c-2.11-6.8-4.22-13.64-5.09-21.08c8.68-2.69,17.02-6.44,24.79-11.15c11.11-6.73,20.96-15.34,30.73-23.9c1.4-1.23,2.8-2.45,4.2-3.68
	c2.23-1.96,4.47-3.92,6.53-6.06C707.25,696.25,709.73,692.93,712.33,689.69z"/>
<path class="st0" d="M295.73,596.42c-16.06,14.8-30.49,31.37-42.95,49.31c-2.75-4.68-5.49-9.36-8.24-14.04
	c-0.56-0.96-1.14-1.98-1.11-3.09c0.02-0.88,0.43-1.7,0.82-2.49c9.9-19.53,22.81-39.11,42.73-48.18c3.03,5.67,6.07,11.34,9.1,17.01
	C296.55,595.81,295.88,597.51,295.73,596.42z"/>
<path class="st0" d="M288.73,641.04c-0.72-7.83,0.02-15.79,2.18-23.34c1.81-6.34,4.6-12.36,6.79-18.58
	c6.48-18.34,7.73-38.06,8.64-57.49s1.56-39.1,6.93-57.8c5.37-18.7,16.1-36.65,33.87-47.34c1.29,82.69,5.58,165.34,12.93,247.78
	c-5.2,8.15-8.4,17.38-12.82,25.98c-4.42,8.59-10.49,16.89-19.26,20.94c-10.36,4.77-22.98,2.64-32.66-3.4s-16.75-15.51-22.06-25.18
	c-8.44-18.86-14.53-38.77-18.06-59.73c10.96-15.76,23.53-30.4,37.46-43.61c1.99-1.89,4.06-3.78,6.58-4.89"/>
</svg>
