<?xml version="1.0" encoding="utf-8"?>
<!-- Generator: Adobe Adobe Illustrator 24.2.0, SVG Export Plug-In . SVG Version: 6.00 Build 0)  -->
<svg version="1.1" id="Calque_3" xmlns="http://www.w3.org/2000/svg" xmlns:xlink="http://www.w3.org/1999/xlink" x="0px" y="0px"
	 viewBox="0 0 900 900" style="enable-background:new 0 0 900 900;" xml:space="preserve">
<style type="text/css">
	.st0{fill:url("#img1");stroke:#000000;stroke-miterlimit:10;}
	.st1{fill:none;stroke:#000000;stroke-miterlimit:10;}
</style>
<defs>
	<pattern id="img1" patternUnits="userSpaceOnUse" x="0" y="0" width="900" height="900">
				<image class="imageSvg" xlink:href="" width="900" height="900"/>             
	</pattern>
</defs>
<path class="st0" d="M642.94,547.87c6.91,38.93-6.73,78.13-13.61,117.06c-9.16,51.87-6.21,105.84,7.35,157.41
	c-15.49,14.28-38.38,16.12-59.42,17.23c-35.38,1.85-70.77,3.71-106.15,5.56c-6.99,0.37-14.04,0.73-20.93-0.44
	c-7.65-1.3-14.84-4.44-21.95-7.55c-25.36-11.1-50.73-22.2-77.11-33.46c0.2-19.5,4.28-38.72,6.78-58.06
	c6.36-49.28,2.33-99.88-12.15-147.51c-5.5,7.23-9.17,15.65-12.79,23.98c-3.64,8.37-7.27,16.74-11.07,25.79
	c-16.79-6.49-33.02-14.93-46.58-26.77c-13.56-11.84-24.35-27.3-29.31-44.41c5.75-9.9,9.44-20.83,13.59-31.51
	c10.74-27.66,24.77-54.03,41.7-78.4c9.78-14.07,21.61-28.24,38.4-33.4c15.05-3.55,30.11-7.1,45.16-10.65
	c18.82-4.44,37.91-8.98,54.2-17.58c33.95,5.94,68.8-0.05,101.08-7.34c29.19,7.56,58.01,16.53,86.33,26.86
	c14.55,5.31,29.29,11.17,39.57,21.34c29.87,45.82,14.21,109.46,39.57,156.4c-8.28,13.63-17.93,26.7-30.48,36.55
	c-12.55,9.85-28.31,16.27-44.23,15.31"/>
<path class="st1" d="M346.93,599.34c-3.82-17.29-7.64-35.32-3.42-52.51"/>
</svg>
