<?xml version="1.0" encoding="utf-8"?>
<!-- Generator: Adobe Adobe Illustrator 24.2.0, SVG Export Plug-In . SVG Version: 6.00 Build 0)  -->
<svg version="1.1" id="Calque_3" xmlns="http://www.w3.org/2000/svg" xmlns:xlink="http://www.w3.org/1999/xlink" x="0px" y="0px"
	 viewBox="0 0 900 900" style="enable-background:new 0 0 900 900;" xml:space="preserve">
<style type="text/css">
	.st0{fill:url("#img1");stroke:#000000;stroke-miterlimit:10;}
	.st1{fill:none;stroke:#000000;stroke-miterlimit:10;}
</style>
<defs>
	<pattern id="img1" patternUnits="userSpaceOnUse" x="0" y="0" width="900" height="900">
				<image class="imageSvg" xlink:href="" width="900" height="900"/>             
	</pattern>
</defs>
<path class="st0" d="M347.71,549.88c-4.89,14.83-2.21,30.96,0.52,46.33c3.38,19.08,6.77,38.16,10.15,57.24
	c5.36,48.8-1.8,99.05-8.95,148.61c8.88,4.75,16.44,9.22,24.53,12.54c8.13,3.34,16.7,5.47,25.05,8.24
	c14.28,4.73,27.87,11.31,41.42,17.87c7.75,4.8,17.74,6.31,27.38,5.99c9.64-0.31,19.12-2.32,28.66-3.7
	c14.37-2.07,28.95-2.7,43.44-1.89c10.69,0.6,21.39,1.98,32.08,1.39c7.37-0.41,14.64-1.75,21.88-3.17
	c15.43-3.02,31.22-6.58,44.24-15.38c-12.45-48.86-15.58-100.91-9.04-151.73c0.87-6.79,1.95-13.66,4.73-19.92
	c26.94,0.23,53.5-15.71,66.17-39.68c0.98-1.86,1.91-3.82,2.04-5.92c0.13-2.06-0.51-4.07-1.12-6.04
	c-7.19-23.21-11.43-47.33-12.58-71.59c-2.47-10.76-3.71-23.06-4.96-35.36c-1.28-12.59-2.72-25.67-9.39-36.42
	c-8.94-14.39-25.47-21.89-41.18-28.22c-29.92-12.07-60.37-22.84-91.23-32.28c-20.72,5.38-41.63,9.12-62.7,11.16
	c-13.05,1.26-26.77,1.75-38.5-3.7c-19.66,11.59-42.97,14.75-64.88,21.16c-11.07,3.24-21.88,7.35-32.3,12.28
	c-6.89,3.26-13.91,7.15-17.12,13.84c-9.9,8.45-15.22,21.19-17.77,33.95c-2.55,12.76-2.66,25.87-4.06,38.81
	c-0.61,5.6-1.45,11.18-2.35,16.74c-3.49,21.74-7.73,43.39-13.87,64.63c3.74,14.75,14.35,27.17,27.24,35.26s27.92,12.21,42.99,14.32"
	/>
<path class="st1" d="M645.13,547.79c-1.66,9.42,0,19.08-0.22,28.64c-0.17,7.11-1.37,14.15-2.58,21.16
	c-3.24,18.86-6.48,37.72-9.72,56.57"/>
	
</svg>
