<?xml version="1.0" encoding="utf-8"?>
<!-- Generator: Adobe Adobe Illustrator 24.2.0, SVG Export Plug-In . SVG Version: 6.00 Build 0)  -->
<svg version="1.1" xmlns="http://www.w3.org/2000/svg" xmlns:xlink="http://www.w3.org/1999/xlink" x="0px" y="0px"
	 viewBox="0 0 900 900" style="enable-background:new 0 0 900 900;" xml:space="preserve">
<style type="text/css">
	.st0{fill:url("#img1");stroke:#000000;stroke-miterlimit:10;}
</style>
<defs>
	<pattern id="img1" patternUnits="userSpaceOnUse" x="0" y="0" width="900" height="900">
				<image class="imageSvg" xlink:href="" width="900" height="900"/>             
	</pattern>
</defs>
<g id="Calque_2">
	<path class="st0" d="M637.3,426.4c12.35,5.36,25.17,11.07,33.77,21.43c25.28,42.88,27.79,122.94,33.47,173.48
		c1.47,27.92-6.21,42.23,8.35,69.81c-21.59,19.73-43.95,39.93-71.47,49.85c-0.25-20.84-1.91-44.1-10.82-61.8
		c8.24-80.1,8.19-70.99,8.19-157.72C638.78,515.48,636.39,441.2,637.3,426.4z"/>
	<path class="st0" d="M715.22,687.56c-19.3,20.26-48.42,45.46-75.35,53.56c3.71,8.88,6.14,18.28,7.19,27.85
		c30-3.18,52.52-26.1,72.08-47.18C727.48,713.75,718.03,696.77,715.22,687.56z"/>
	<path class="st0" d="M319.1,452.5c-42.63,22.16-49.41,70.55-63.22,112.65c-8.67,25.71-19.98,50.53-33.69,73.93
		c-6.02,10.27-13.1,21.25-15.83,32.9c19.16,17.07,33.14,29.25,51.02,45.19c0.54,0.48,1.16,0.88,1.73,1.32
		c34.27-16.08,48.76-52.45,55.48-87.51c7.28-28.3,11.7-43,29-68.16C336.59,527.35,337.23,482.66,319.1,452.5z"/>
	<path class="st0" d="M262.98,721.28c-19.99-19.13-42.14-33.88-61.97-54.58c-6.1,4.97-13.17,8.76-20.34,11.42
		c13.35,23.75,34.39,43.09,59.72,55.09C248.29,729.62,255.99,725.6,262.98,721.28z"/>
	<path class="st0" d="M430.62,408.33c-37.5,13.1-81.05,15.79-111.28,44.18c17.01,34.95,17.54,75.26,24.58,113.49
		c5.76,31.27,16.08,61.89,17.98,94.65c4.79,47.63-5.68,93.64-7.8,140.88c23.2,8.44,46.46,16.89,68.61,27.79
		c13.41,6.6,26.84,14.22,41.71,15.69c11.33,1.12,22.65-1.43,33.93-2.93c46.43-6.58,100.72,6.97,141.44-20.96
		c-16.22-58.02-14.98-118.56-4.69-177.41c6.1-72.39,5.17-146.42,1.57-218.67c-28.65-8.28-56.48-22.97-86.45-25.09
		c-27.27,13.62-28.23,11.29-45.54,12.98c-2.46,0.24-34.32,2.39-35.98,2.25c-5.6-0.25-14.02,0.25-23.74-1.49
		C441.23,413.03,432.2,407.78,430.62,408.33z"/>
	<path class="st0" d="M431.1,407.75c0,0,6.56-23.04,7.15-23.06c29.95,12.91,75.43,7.25,105.47-3.78c0,0,8.18,17.75,7.15,18.65
		c-26.75,16.36-59.46,16.24-89.87,15.3C450.44,414.56,439.11,413.96,431.1,407.75z"/>
		</g>
<g id="Calque_3">
</g>
</svg>
