<svg width="458" height="470" viewBox="0 0 458 470" fill="none" xmlns="http://www.w3.org/2000/svg">
<path d="M367.8 47.2496C369.76 65.2396 369.53 83.3796 369.3 101.47C368.84 137.58 368.38 173.7 367.92 209.81C367.67 229.57 367.41 249.39 364.86 268.99C362.99 283.31 359.9 297.46 358.23 311.8C353.2 354.92 361.07 398.38 368.13 442.29C362.51 446.81 355.57 449.33 348.66 451.39C331.08 456.62 312.76 459.35 294.42 459.47C272.47 459.61 250 456.08 229.23 462.27C228.9 464.61 228.75 466.97 228.34 469.27C221.6 467.11 214.65 465.62 207.63 464.82C202.79 464.27 197.92 464.05 193.09 463.45C179.34 461.75 165.99 456.94 153.6 449.17C129.45 440.77 105.73 431.16 82.36 419.79C86.44 389.42 89.6 358.93 91.35 327.51C94.26 286.89 87.24 246.31 84.46 205.69C81 155.07 84.11 104 78.98 52.9496C103.48 37.5096 134.46 37.2896 162.53 26.0996C169.75 30.4296 178.42 31.4696 186.81 32.2196C203.44 33.7096 220.23 34.4596 236.82 32.5496C253.41 30.6396 269.87 25.9796 285.1 17.5596C313.06 25.9596 340.66 35.5896 367.8 47.2496Z" fill="#F4F4F4" stroke="black" stroke-miterlimit="10"/>
<path d="M79.8001 53.9297C61.9501 62.9297 47.8101 79.0297 41.1801 97.8897C38.1101 106.63 36.6201 115.82 35.1301 124.96C26.6701 177.17 18.1901 230 23.1301 284.81C9.8301 338.29 2.31008 393.21 0.580078 448.86C7.55008 456.77 16.6601 463.03 26.9301 465.43C37.2001 467.83 48.6301 466.07 57.1301 458.73C67.5301 416.74 78.8901 374.99 91.0001 332.39C95.5001 286.73 86.8001 240.94 83.9501 195.15C81.0401 148.24 84.2601 100.93 79.8001 53.9297Z" fill="#F4F4F4" stroke="black" stroke-miterlimit="10"/>
<path d="M167.71 4.42953C202.17 13.6395 238.91 8.86953 273.51 1.51953C276.59 7.11953 279.68 12.7096 282.69 18.6696C245.16 36.8596 200.54 39.8695 160.05 26.8195C163.59 19.9795 165.77 12.4295 167.71 4.42953Z" fill="#F4F4F4" stroke="black" stroke-miterlimit="10"/>
<path d="M367.88 48.5303C370.18 70.2903 370.66 92.2503 369.32 114.09C368.62 125.47 367.42 136.84 367.26 148.24C367.03 164.66 368.96 181.03 369.19 197.45C369.32 206.33 368.95 215.21 368.42 224.08C366.64 254.01 363.05 283.83 358.45 313.53C365.51 327.05 369.64 341.88 373.71 356.58C376.6 367.02 379.5 377.47 382.39 387.91C388.66 410.53 394.93 433.17 399.73 456.35C401.64 460.38 406.33 462.23 410.71 463.09C427.21 466.31 445.24 459.71 456.53 445.85C456.22 390.68 448.81 335.55 434.6 282.55C436.42 228.34 429.38 174.24 421.13 120.62C418.62 104.29 415.68 87.2203 406.41 74.3703C395.59 62.2103 382 52.5003 367.88 48.5303Z" fill="#F4F4F4" stroke="black" stroke-miterlimit="10"/>
<path d="M230.24 463.08C229.97 432.34 228.64 401.61 226.25 370.96Z" fill="#F4F4F4"/>
<path d="M230.24 463.08C229.97 432.34 228.64 401.61 226.25 370.96" stroke="black" stroke-miterlimit="10"/>
</svg>
