<svg width="451" height="468" viewBox="0 0 451 468" fill="none" xmlns="http://www.w3.org/2000/svg">
<path d="M365.74 48.9101C366.25 64.9501 366.25 80.9901 366.26 97.0401C366.27 131.15 366.28 165.26 366.29 199.37C366.29 217.75 366.3 236.16 364.46 254.45C362.82 270.73 359.73 286.84 357.75 303.08C352.1 349.33 355.55 396.67 367.66 441.39C363.53 447.35 356.47 450.51 349.58 452.77C315.41 464 278.33 459.87 242.53 463.33C225.66 464.96 208.67 468.29 191.88 465.9C179.16 464.09 167.16 459.06 155.32 454.07C130.37 443.57 105.42 433.06 79.72 422.03C86.13 378.03 90.93 333.6 89.27 289.17C88.68 273.27 87.26 257.42 86 241.56C81.14 180.16 78.7 118.6 76.78 56.6401C100.61 39.7301 133 41.1401 159.24 28.2801C164.43 32.5201 171.44 33.64 178.1 34.36C199.8 36.7 221.77 36.5001 243.42 33.7501C256.7 32.0701 270.79 28.9301 280.42 18.8201C309.05 27.3501 337.32 37.1101 365.74 48.9101Z" fill="#F4F4F4" stroke="black" stroke-miterlimit="10"/>
<path d="M165.92 5.36002C182.7 11.51 200.98 12.15 218.83 11.36C224.69 11.1 230.56 10.69 236.35 9.71002C240.34 9.04002 244.29 8.09002 248.23 7.15002C255.98 5.30002 263.73 3.44002 271.28 1.27002C273.58 7.44002 277.17 13.03 281.13 18.77C278.87 21.06 276.15 22.82 273.35 24.4C267.55 27.66 261.35 30.19 255.15 31.77C231.14 35.58 206.7 36.66 182.68 34.7C174.42 33.9 166.3 31.68 158.88 28.39C160.18 25.65 161.05 22.73 161.9 19.83C163.32 15.02 164.74 10.21 165.92 5.36002Z" fill="#F4F4F4" stroke="black" stroke-miterlimit="10"/>
<path d="M440.75 311.05C430.15 290.35 431.04 265.94 430.79 242.69C430.26 193.34 423.5 144.07 410.72 96.4099C407.79 85.4699 404.31 74.2099 396.68 65.8499C388.71 57.1299 377.23 52.6499 365.16 49.1899C365.62 77.9099 366.08 106.62 366.53 135.34C366.65 142.88 366.77 150.42 366.82 157.95C367.13 209.04 363.99 260.15 357.55 310.79C365.62 326.27 368.53 343.84 371.51 362.37C397.79 350.4 421.6 333.02 440.75 311.05Z" fill="#F4F4F4" stroke="black" stroke-miterlimit="10"/>
<path d="M442.33 308.69C445.6 312.85 447.52 317.95 448.58 323.14C449.64 328.33 449.9 333.64 450.15 338.93C443.84 345.79 437.54 352.86 430.56 359.23C414.72 373.69 395.49 384.4 375.24 390.57C374.57 388.41 373.9 386.26 373.24 384.1C371.13 377.3 369.02 370.46 368.15 363.02C376.83 360.33 385.17 356.58 392.94 351.87C404.05 345.14 413.9 336.53 423.67 327.97C425.07 326.74 426.47 325.52 427.87 324.29C430.1 322.33 432.34 320.37 434.4 318.23C437.25 315.25 439.73 311.93 442.33 308.69Z" fill="#F4F4F4" stroke="black" stroke-miterlimit="10"/>
<path d="M8.10997 313.19C25.25 330.36 44.25 345.66 64.69 358.73C70.43 362.4 76.48 365.97 83.21 367.07C80.84 375.77 78.47 384.46 76.11 393.16C47.46 387.5 24.44 366.75 3.77998 346.1C2.85998 345.18 1.92998 344.24 1.36998 343.06C0.619975 341.46 0.639969 339.62 0.769969 337.86C1.38997 329.27 4.05997 320.84 8.10997 313.19Z" fill="#F4F4F4" stroke="black" stroke-miterlimit="10"/>
<path d="M77.87 56.9399C64.22 58.7199 52.85 68.9899 46.2 81.0499C39.55 93.1099 36.86 106.88 34.33 120.42C26.23 163.77 18.83 207.55 19.52 251.64C19.86 273.26 21.83 296.29 11.38 315.01C10.98 316.06 11.9 317.11 12.73 317.86C30.27 333.66 48.38 349.07 68.82 360.89C72.58 363.07 76.5 365.15 81.11 366.18C81.08 351.71 83.66 337.23 89.49 323.32C88.04 268.37 84.92 213.46 80.83 158.74C78.97 124.67 77.92 90.5399 77.87 56.9399Z" fill="#F4F4F4" stroke="black" stroke-miterlimit="10"/>
</svg>
