<svg width="456" height="479" viewBox="0 0 456 479" fill="none" xmlns="http://www.w3.org/2000/svg">
<path d="M78.2298 67.0098C77.8298 149.32 82.5898 231.59 89.7498 313.59C90.5598 322.89 91.3998 332.25 90.4598 341.53C89.6698 349.35 87.6198 356.98 85.5898 364.57C76.2498 399.38 66.9098 434.18 55.7198 470.52C53.7498 474.52 49.3198 476.84 44.8998 477.43C40.4798 478.02 36.0098 477.15 31.6498 476.24C20.5298 473.91 8.34982 470.52 0.569824 457.84C2.27982 412.91 4.04982 367.54 15.5698 324.08C17.9998 314.92 20.8698 305.81 21.8298 296.38C22.4798 290.04 22.2598 283.64 22.1598 277.27C21.4098 226.15 29.0398 175.31 36.6498 124.75C38.0598 115.4 39.5198 105.87 43.6998 97.3898C50.5298 83.5398 63.7098 74.1198 78.2298 67.0098Z" fill="#F4F4F4" stroke="black" stroke-miterlimit="10"/>
<path d="M77.8301 68.8499C79.9201 141.89 82.0101 214.99 88.3001 287.79C90.0901 308.46 92.2101 329.19 91.1801 349.91C89.8101 377.63 82.8001 404.97 83.5001 431.55C99.0301 443.42 118.87 447.62 137.09 454.69C158.89 463.16 179.76 476.24 203.13 477.06C213.56 477.43 223.9 475.29 234.27 474.18C256.45 471.82 278.89 474.16 301.13 472.51C324.89 470.74 348.3 464.36 369.32 454.4C361.58 432.64 360.21 409.2 358.91 386.14C357.97 369.36 357.02 352.55 357.62 335.75C359.03 295.75 369.11 256.34 369.13 216.32C369.14 195.18 366.35 174.11 366.41 152.97C366.5 121.83 372.76 90.25 365.12 60.2C362.14 56.14 356.43 54.8699 351.5 55.8599C346.57 56.8499 342.23 59.6899 338.11 62.5799C318.48 76.3499 300.62 92.6399 285.1 110.91C282.63 113.82 280.2 116.79 277.29 119.27C274.53 121.62 271.39 123.46 268.27 125.3C261.95 129.02 255.63 132.74 249.31 136.46C243.96 139.61 238.36 142.84 232.17 143.29C227.89 143.6 223.63 142.55 219.55 141.21C194.65 133.04 174.71 114.56 155.63 96.6099C149.09 90.4599 142.55 84.3099 136.01 78.1599C133.16 75.4799 130.29 72.7799 126.97 70.7099C118.6 65.4799 107.51 64.2499 100.84 57.3799C92.5901 59.6799 84.7101 63.2899 77.8301 68.8499Z" fill="#F4F4F4" stroke="black" stroke-miterlimit="10"/>
<path d="M363.55 57.9004C376.99 64.8604 390.7 72.1704 400.68 83.5504C416.77 101.88 420.65 127.6 423.87 151.78C430.12 198.82 436.39 246.26 433.64 293.23C433.99 300.43 435.78 307.48 437.45 314.49C448.69 361.64 454.74 410.02 455.45 459.77C445.25 471.68 429.34 478.45 413.68 477.56C407.46 477.21 400.76 475.35 397.13 470.47C394.59 452.81 392.03 435.04 386.35 418.13C385.14 414.53 383.79 410.98 382.55 407.39C373.3 380.6 370.06 351.72 358.38 326.29C357.9 314.44 359.94 302.65 361.65 290.91C368.08 246.66 369.88 201.74 367 157.12C366.51 149.46 365.87 141.78 366.16 134.11C366.55 123.67 368.64 113.35 369.17 102.92C369.94 87.5804 367.31 72.2904 363.55 57.9004Z" fill="#F4F4F4" stroke="black" stroke-miterlimit="10"/>
<path d="M100.58 56.2602C106.68 64.0702 117.49 65.9902 126.16 70.8002C132.38 74.2502 137.55 79.2702 142.65 84.2302C167.16 108.09 192.86 132.79 225.27 143.46C231.48 144.61 237.91 142.92 243.6 140.2C249.29 137.48 254.44 133.75 259.83 130.47C264.86 127.41 270.15 124.73 274.81 121.13C279.84 117.26 284.02 112.42 288.29 107.72C299.21 95.6802 310.86 84.3102 323.16 73.6902C332.41 65.7002 342.34 57.9702 353.52 54.8402C352.49 45.9502 345.94 37.9402 337.43 35.1702C333.31 33.8302 328.82 33.6202 324.9 31.7502C321.12 29.9502 318.23 26.7702 315.2 23.8702C308.59 17.5402 300.96 12.2802 292.88 9.39024C264.72 1.20024 234.94 1.08023 205.62 1.03023C199.88 1.02023 194.09 1.01023 188.45 2.10023C183.58 3.04023 178.91 4.77022 174.18 6.24022C162.68 9.82022 149.92 12.3602 141.95 21.3802C139.92 23.6802 138.28 26.3302 136.03 28.4302C128.77 35.1802 117.12 34.5602 108.98 40.2202C103.7 43.8802 100.36 50.1602 100.58 56.2602Z" fill="#F4F4F4" stroke="black" stroke-miterlimit="10"/>
</svg>
