<svg width="416" height="452" viewBox="0 0 416 452" fill="none" xmlns="http://www.w3.org/2000/svg">
<path d="M60.71 153.88C55.82 168.71 58.5 184.84 61.23 200.21C64.61 219.29 68 238.37 71.38 257.45C76.74 306.25 69.58 356.5 62.43 406.06C71.31 410.81 78.87 415.28 86.96 418.6C95.09 421.94 103.66 424.07 112.01 426.84C126.29 431.57 139.88 438.15 153.43 444.71C161.18 449.51 171.17 451.02 180.81 450.7C190.45 450.39 199.93 448.38 209.47 447C223.84 444.93 238.42 444.3 252.91 445.11C263.6 445.71 274.3 447.09 284.99 446.5C292.36 446.09 299.63 444.75 306.87 443.33C322.3 440.31 338.09 436.75 351.11 427.95C338.66 379.09 335.53 327.04 342.07 276.22C342.94 269.43 344.02 262.56 346.8 256.3C373.74 256.53 400.3 240.59 412.97 216.62C413.95 214.76 414.88 212.8 415.01 210.7C415.14 208.64 414.5 206.63 413.89 204.66C406.7 181.45 402.46 157.33 401.31 133.07C398.84 122.31 397.6 110.01 396.35 97.71C395.07 85.12 393.63 72.04 386.96 61.29C378.02 46.9 361.49 39.4 345.78 33.07C315.86 21 285.41 10.23 254.55 0.790039C233.83 6.17004 212.92 9.91004 191.85 11.95C178.8 13.21 165.08 13.7 153.35 8.25003C133.69 19.84 110.38 23 88.47 29.41C77.4 32.65 66.59 36.76 56.17 41.69C49.28 44.95 42.26 48.84 39.05 55.53C29.15 63.98 23.83 76.72 21.28 89.48C18.73 102.24 18.62 115.35 17.22 128.29C16.61 133.89 15.77 139.47 14.87 145.03C11.38 166.77 7.14 188.42 1 209.66C4.74 224.41 15.35 236.83 28.24 244.92C41.13 253.01 56.16 257.13 71.23 259.24" fill="#F4F4F4"/>
<path d="M60.71 153.88C55.82 168.71 58.5 184.84 61.23 200.21C64.61 219.29 68 238.37 71.38 257.45C76.74 306.25 69.58 356.5 62.43 406.06C71.31 410.81 78.87 415.28 86.96 418.6C95.09 421.94 103.66 424.07 112.01 426.84C126.29 431.57 139.88 438.15 153.43 444.71C161.18 449.51 171.17 451.02 180.81 450.7C190.45 450.39 199.93 448.38 209.47 447C223.84 444.93 238.42 444.3 252.91 445.11C263.6 445.71 274.3 447.09 284.99 446.5C292.36 446.09 299.63 444.75 306.87 443.33C322.3 440.31 338.09 436.75 351.11 427.95C338.66 379.09 335.53 327.04 342.07 276.22C342.94 269.43 344.02 262.56 346.8 256.3C373.74 256.53 400.3 240.59 412.97 216.62C413.95 214.76 414.88 212.8 415.01 210.7C415.14 208.64 414.5 206.63 413.89 204.66C406.7 181.45 402.46 157.33 401.31 133.07C398.84 122.31 397.6 110.01 396.35 97.71C395.07 85.12 393.63 72.04 386.96 61.29C378.02 46.9 361.49 39.4 345.78 33.07C315.86 21 285.41 10.23 254.55 0.790039C233.83 6.17004 212.92 9.91004 191.85 11.95C178.8 13.21 165.08 13.7 153.35 8.25003C133.69 19.84 110.38 23 88.47 29.41C77.4 32.65 66.59 36.76 56.17 41.69C49.28 44.95 42.26 48.84 39.05 55.53C29.15 63.98 23.83 76.72 21.28 89.48C18.73 102.24 18.62 115.35 17.22 128.29C16.61 133.89 15.77 139.47 14.87 145.03C11.38 166.77 7.14 188.42 1 209.66C4.74 224.41 15.35 236.83 28.24 244.92C41.13 253.01 56.16 257.13 71.23 259.24" stroke="black" stroke-miterlimit="10"/>
<path d="M358.13 151.79C356.47 161.21 358.13 170.87 357.91 180.43C357.74 187.54 356.54 194.58 355.33 201.59C352.09 220.45 348.85 239.31 345.61 258.16" stroke="black" stroke-miterlimit="10"/>
</svg>
